<mxfile host="app.diagrams.net" agent="Mozilla/5.0 (Macintosh; Intel Mac OS X 10_15_7) AppleWebKit/537.36 (KHTML, like Gecko) Chrome/138.0.0.0 Safari/537.36" version="26.2.7">
  <diagram name="Page-1" id="IRlD32hW4G9cvuu5cIb-">
    <mxGraphModel grid="1" page="1" gridSize="10" guides="1" tooltips="1" connect="1" arrows="1" fold="1" pageScale="1" pageWidth="850" pageHeight="1100" math="0" shadow="0">
      <root>
        <mxCell id="0" />
        <mxCell id="1" parent="0" />
        <mxCell id="mTm7E0tjke5o1m_IlCaZ-84" value="👤 Marca/Brand" style="whiteSpace=wrap;strokeWidth=2;fillColor=light-dark(#F0A30A,#FFFF66);fontColor=light-dark(#000000,#000000);strokeColor=#BD7000;" vertex="1" parent="1">
          <mxGeometry x="62" y="248" width="177" height="54" as="geometry" />
        </mxCell>
        <mxCell id="mTm7E0tjke5o1m_IlCaZ-85" value="👤 Gestor de Partners" style="whiteSpace=wrap;strokeWidth=2;fillColor=light-dark(#F0A30A,#FFFF66);fontColor=light-dark(#000000,#000000);strokeColor=#BD7000;" vertex="1" parent="1">
          <mxGeometry x="41" y="504" width="219" height="54" as="geometry" />
        </mxCell>
        <mxCell id="mTm7E0tjke5o1m_IlCaZ-86" value="👤 Partner Afiliado" style="whiteSpace=wrap;strokeWidth=2;fillColor=light-dark(#F0A30A,#FFFF66);fontColor=light-dark(#000000,#000000);strokeColor=#BD7000;" vertex="1" parent="1">
          <mxGeometry x="52" y="736" width="197" height="54" as="geometry" />
        </mxCell>
        <mxCell id="mTm7E0tjke5o1m_IlCaZ-87" value="👤 Cliente/Usuario Final" style="whiteSpace=wrap;strokeWidth=2;fillColor=light-dark(#F0A30A,#FFFF66);fontColor=light-dark(#000000,#000000);strokeColor=#BD7000;" vertex="1" parent="1">
          <mxGeometry x="31" y="978" width="238" height="54" as="geometry" />
        </mxCell>
        <mxCell id="mTm7E0tjke5o1m_IlCaZ-88" value="👤 Administrador del Sistema" style="whiteSpace=wrap;strokeWidth=2;fillColor=light-dark(#F0A30A,#FFFF66);fontColor=light-dark(#000000,#000000);strokeColor=#BD7000;" vertex="1" parent="1">
          <mxGeometry x="20" y="1446" width="260" height="78" as="geometry" />
        </mxCell>
        <mxCell id="mTm7E0tjke5o1m_IlCaZ-89" value="📱 CRM Externo" style="whiteSpace=wrap;strokeWidth=2;fillColor=#d80073;fontColor=#ffffff;strokeColor=#A50040;" vertex="1" parent="1">
          <mxGeometry x="62" y="20" width="175" height="54" as="geometry" />
        </mxCell>
        <mxCell id="mTm7E0tjke5o1m_IlCaZ-90" value="🛒 Plataforma E-commerce" style="whiteSpace=wrap;strokeWidth=2;fillColor=light-dark(#F0A30A,#FFFF66);fontColor=light-dark(#000000,#000000);strokeColor=#BD7000;" vertex="1" parent="1">
          <mxGeometry x="21" y="1146" width="258" height="54" as="geometry" />
        </mxCell>
        <mxCell id="mTm7E0tjke5o1m_IlCaZ-91" value="💳 Pasarela de Pago" style="whiteSpace=wrap;strokeWidth=2;fillColor=light-dark(#F0A30A,#FFFF66);fontColor=light-dark(#000000,#000000);strokeColor=#BD7000;" vertex="1" parent="1">
          <mxGeometry x="48" y="1806" width="205" height="54" as="geometry" />
        </mxCell>
        <mxCell id="mTm7E0tjke5o1m_IlCaZ-92" value="🛡️ Servicio Detección Fraude" style="whiteSpace=wrap;strokeWidth=2;fillColor=light-dark(#F0A30A,#FFFF66);fontColor=light-dark(#000000,#000000);strokeColor=#BD7000;" vertex="1" parent="1">
          <mxGeometry x="330" y="1304" width="260" height="78" as="geometry" />
        </mxCell>
        <mxCell id="mTm7E0tjke5o1m_IlCaZ-93" value="🔵 Buscar Partners" style="whiteSpace=wrap;strokeWidth=2;fillColor=#1ba1e2;fontColor=#ffffff;strokeColor=#006EAF;" vertex="1" parent="1">
          <mxGeometry x="362" y="20" width="196" height="54" as="geometry" />
        </mxCell>
        <mxCell id="mTm7E0tjke5o1m_IlCaZ-94" value="🔵 Crear Campaña" style="whiteSpace=wrap;strokeWidth=2;fillColor=#1ba1e2;fontColor=#ffffff;strokeColor=#006EAF;" vertex="1" parent="1">
          <mxGeometry x="363" y="144" width="195" height="54" as="geometry" />
        </mxCell>
        <mxCell id="mTm7E0tjke5o1m_IlCaZ-95" value="🔵 Definir Términos Contractuales" style="whiteSpace=wrap;strokeWidth=2;fillColor=#1ba1e2;fontColor=#ffffff;strokeColor=#006EAF;" vertex="1" parent="1">
          <mxGeometry x="330" y="592" width="260" height="78" as="geometry" />
        </mxCell>
        <mxCell id="mTm7E0tjke5o1m_IlCaZ-96" value="🔵 Invitar Partner" style="whiteSpace=wrap;strokeWidth=2;fillColor=#1ba1e2;fontColor=#ffffff;strokeColor=#006EAF;" vertex="1" parent="1">
          <mxGeometry x="365" y="258" width="189" height="54" as="geometry" />
        </mxCell>
        <mxCell id="mTm7E0tjke5o1m_IlCaZ-97" value="🔵 Aceptar Invitación" style="whiteSpace=wrap;strokeWidth=2;fillColor=#1ba1e2;fontColor=#ffffff;strokeColor=#006EAF;" vertex="1" parent="1">
          <mxGeometry x="353" y="736" width="215" height="54" as="geometry" />
        </mxCell>
        <mxCell id="mTm7E0tjke5o1m_IlCaZ-98" value="🔵 Generar Código Seguimiento" style="whiteSpace=wrap;strokeWidth=2;fillColor=#1ba1e2;fontColor=#ffffff;strokeColor=#006EAF;" vertex="1" parent="1">
          <mxGeometry x="330" y="1432" width="260" height="78" as="geometry" />
        </mxCell>
        <mxCell id="mTm7E0tjke5o1m_IlCaZ-99" value="🔵 Clic en Enlace Afiliado" style="whiteSpace=wrap;strokeWidth=2;fillColor=#1ba1e2;fontColor=#ffffff;strokeColor=#006EAF;" vertex="1" parent="1">
          <mxGeometry x="338" y="968" width="245" height="54" as="geometry" />
        </mxCell>
        <mxCell id="mTm7E0tjke5o1m_IlCaZ-100" value="🔵 Completar Conversión" style="whiteSpace=wrap;strokeWidth=2;fillColor=#1ba1e2;fontColor=#ffffff;strokeColor=#006EAF;" vertex="1" parent="1">
          <mxGeometry x="339" y="1072" width="242" height="54" as="geometry" />
        </mxCell>
        <mxCell id="mTm7E0tjke5o1m_IlCaZ-101" value="🔵 Calcular Comisión" style="whiteSpace=wrap;strokeWidth=2;fillColor=#1ba1e2;fontColor=#ffffff;strokeColor=#006EAF;" vertex="1" parent="1">
          <mxGeometry x="354" y="2114" width="213" height="54" as="geometry" />
        </mxCell>
        <mxCell id="mTm7E0tjke5o1m_IlCaZ-102" value="🔵 Procesar Pago" style="whiteSpace=wrap;strokeWidth=2;fillColor=#1ba1e2;fontColor=#ffffff;strokeColor=#006EAF;" vertex="1" parent="1">
          <mxGeometry x="368" y="1724" width="184" height="54" as="geometry" />
        </mxCell>
        <mxCell id="mTm7E0tjke5o1m_IlCaZ-103" value="🔵 Revisar Rendimiento" style="whiteSpace=wrap;strokeWidth=2;fillColor=#1ba1e2;fontColor=#ffffff;strokeColor=#006EAF;" vertex="1" parent="1">
          <mxGeometry x="345" y="378" width="230" height="54" as="geometry" />
        </mxCell>
        <mxCell id="mTm7E0tjke5o1m_IlCaZ-104" value="🟠 Partners Descubiertos" style="whiteSpace=wrap;strokeWidth=2;fillColor=#a0522d;fontColor=#ffffff;strokeColor=#6D1F00;" vertex="1" parent="1">
          <mxGeometry x="650" y="20" width="240" height="54" as="geometry" />
        </mxCell>
        <mxCell id="mTm7E0tjke5o1m_IlCaZ-105" value="🟠 Campaña Creada" style="whiteSpace=wrap;strokeWidth=2;fillColor=#a0522d;fontColor=#ffffff;strokeColor=#6D1F00;" vertex="1" parent="1">
          <mxGeometry x="667" y="144" width="206" height="54" as="geometry" />
        </mxCell>
        <mxCell id="mTm7E0tjke5o1m_IlCaZ-106" value="🟠 Términos Contractuales Definidos" style="whiteSpace=wrap;strokeWidth=2;fillColor=#a0522d;fontColor=#ffffff;strokeColor=#6D1F00;" vertex="1" parent="1">
          <mxGeometry x="640" y="592" width="260" height="78" as="geometry" />
        </mxCell>
        <mxCell id="mTm7E0tjke5o1m_IlCaZ-107" value="🟠 Partner Invitado" style="whiteSpace=wrap;strokeWidth=2;fillColor=#a0522d;fontColor=#ffffff;strokeColor=#6D1F00;" vertex="1" parent="1">
          <mxGeometry x="670" y="258" width="200" height="54" as="geometry" />
        </mxCell>
        <mxCell id="mTm7E0tjke5o1m_IlCaZ-108" value="🟠 Partner Registrado" style="whiteSpace=wrap;strokeWidth=2;fillColor=#a0522d;fontColor=#ffffff;strokeColor=#6D1F00;" vertex="1" parent="1">
          <mxGeometry x="661" y="836" width="217" height="54" as="geometry" />
        </mxCell>
        <mxCell id="mTm7E0tjke5o1m_IlCaZ-109" value="🟠 Código Seguimiento Generado" style="whiteSpace=wrap;strokeWidth=2;fillColor=#a0522d;fontColor=#ffffff;strokeColor=#6D1F00;" vertex="1" parent="1">
          <mxGeometry x="640" y="1432" width="260" height="78" as="geometry" />
        </mxCell>
        <mxCell id="mTm7E0tjke5o1m_IlCaZ-110" value="🟠 Enlace Afiliado Clicado" style="whiteSpace=wrap;strokeWidth=2;fillColor=#a0522d;fontColor=#ffffff;strokeColor=#6D1F00;" vertex="1" parent="1">
          <mxGeometry x="646" y="968" width="248" height="54" as="geometry" />
        </mxCell>
        <mxCell id="mTm7E0tjke5o1m_IlCaZ-111" value="🟠 Conversión Rastreada" style="whiteSpace=wrap;strokeWidth=2;fillColor=#a0522d;fontColor=#ffffff;strokeColor=#6D1F00;" vertex="1" parent="1">
          <mxGeometry x="651" y="1246" width="239" height="54" as="geometry" />
        </mxCell>
        <mxCell id="mTm7E0tjke5o1m_IlCaZ-112" value="🟠 Comisión Calculada" style="whiteSpace=wrap;strokeWidth=2;fillColor=#a0522d;fontColor=#ffffff;strokeColor=#6D1F00;" vertex="1" parent="1">
          <mxGeometry x="658" y="2114" width="224" height="54" as="geometry" />
        </mxCell>
        <mxCell id="mTm7E0tjke5o1m_IlCaZ-113" value="🟠 Pago Procesado" style="whiteSpace=wrap;strokeWidth=2;fillColor=#a0522d;fontColor=#ffffff;strokeColor=#6D1F00;" vertex="1" parent="1">
          <mxGeometry x="673" y="1724" width="195" height="54" as="geometry" />
        </mxCell>
        <mxCell id="mTm7E0tjke5o1m_IlCaZ-114" value="🟠 Rendimiento Reportado" style="whiteSpace=wrap;strokeWidth=2;fillColor=#a0522d;fontColor=#ffffff;strokeColor=#6D1F00;" vertex="1" parent="1">
          <mxGeometry x="644" y="378" width="253" height="54" as="geometry" />
        </mxCell>
        <mxCell id="mTm7E0tjke5o1m_IlCaZ-115" value="🟢 Perfil Partner y Métricas" style="whiteSpace=wrap;strokeWidth=2;fillColor=#6d8764;fontColor=#ffffff;strokeColor=#3A5431;" vertex="1" parent="1">
          <mxGeometry x="21" y="124" width="258" height="54" as="geometry" />
        </mxCell>
        <mxCell id="mTm7E0tjke5o1m_IlCaZ-116" value="🟢 Configuración de Campaña" style="whiteSpace=wrap;strokeWidth=2;fillColor=#6d8764;fontColor=#ffffff;strokeColor=#3A5431;" vertex="1" parent="1">
          <mxGeometry x="20" y="1250" width="260" height="78" as="geometry" />
        </mxCell>
        <mxCell id="mTm7E0tjke5o1m_IlCaZ-117" value="🟢 Catálogo Términos Contractuales" style="whiteSpace=wrap;strokeWidth=2;fillColor=#6d8764;fontColor=#ffffff;strokeColor=#3A5431;" vertex="1" parent="1">
          <mxGeometry x="20" y="608" width="260" height="78" as="geometry" />
        </mxCell>
        <mxCell id="mTm7E0tjke5o1m_IlCaZ-118" value="🟢 Datos Seguimiento y Atribución" style="whiteSpace=wrap;strokeWidth=2;fillColor=#6d8764;fontColor=#ffffff;strokeColor=#3A5431;" vertex="1" parent="1">
          <mxGeometry x="20" y="1910" width="260" height="78" as="geometry" />
        </mxCell>
        <mxCell id="mTm7E0tjke5o1m_IlCaZ-119" value="🟢 Motor Reglas de Comisión" style="whiteSpace=wrap;strokeWidth=2;fillColor=#6d8764;fontColor=#ffffff;strokeColor=#3A5431;" vertex="1" parent="1">
          <mxGeometry x="20" y="2038" width="260" height="78" as="geometry" />
        </mxCell>
        <mxCell id="mTm7E0tjke5o1m_IlCaZ-120" value="🟢 Calendario y Estado de Pagos" style="whiteSpace=wrap;strokeWidth=2;fillColor=#6d8764;fontColor=#ffffff;strokeColor=#3A5431;" vertex="1" parent="1">
          <mxGeometry x="20" y="1574" width="260" height="78" as="geometry" />
        </mxCell>
        <mxCell id="mTm7E0tjke5o1m_IlCaZ-121" value="🟢 Analítica de Rendimiento" style="whiteSpace=wrap;strokeWidth=2;fillColor=#6d8764;fontColor=#ffffff;strokeColor=#3A5431;" vertex="1" parent="1">
          <mxGeometry x="20" y="376" width="260" height="78" as="geometry" />
        </mxCell>
        <mxCell id="mTm7E0tjke5o1m_IlCaZ-122" value="🟣 Política Cálculo Comisión" style="whiteSpace=wrap;strokeWidth=2;fillColor=#76608a;fontColor=#ffffff;strokeColor=#432D57;" vertex="1" parent="1">
          <mxGeometry x="20" y="2166" width="260" height="78" as="geometry" />
        </mxCell>
        <mxCell id="mTm7E0tjke5o1m_IlCaZ-123" value="🟣 Política Detección Fraude" style="whiteSpace=wrap;strokeWidth=2;fillColor=#76608a;fontColor=#ffffff;strokeColor=#432D57;" vertex="1" parent="1">
          <mxGeometry x="330" y="1176" width="260" height="78" as="geometry" />
        </mxCell>
        <mxCell id="mTm7E0tjke5o1m_IlCaZ-124" value="🟣 Política SLA de Pagos" style="whiteSpace=wrap;strokeWidth=2;fillColor=#76608a;fontColor=#ffffff;strokeColor=#432D57;" vertex="1" parent="1">
          <mxGeometry x="33" y="1702" width="234" height="54" as="geometry" />
        </mxCell>
        <mxCell id="mTm7E0tjke5o1m_IlCaZ-125" value="🟣 Política Cumplimiento y Divulgación" style="whiteSpace=wrap;strokeWidth=2;fillColor=#76608a;fontColor=#ffffff;strokeColor=#432D57;" vertex="1" parent="1">
          <mxGeometry x="330" y="840" width="260" height="78" as="geometry" />
        </mxCell>
        <mxCell id="mTm7E0tjke5o1m_IlCaZ-126" value="🟡 CPA - Costo Por Acción" style="whiteSpace=wrap;strokeWidth=2;fillColor=#e3c800;fontColor=#000000;strokeColor=#B09500;" vertex="1" parent="1">
          <mxGeometry x="28" y="2294" width="244" height="54" as="geometry" />
        </mxCell>
        <mxCell id="mTm7E0tjke5o1m_IlCaZ-127" value="🟡 CPL - Costo Por Lead" style="whiteSpace=wrap;strokeWidth=2;fillColor=#e3c800;fontColor=#000000;strokeColor=#B09500;" vertex="1" parent="1">
          <mxGeometry x="34" y="2398" width="233" height="54" as="geometry" />
        </mxCell>
        <mxCell id="mTm7E0tjke5o1m_IlCaZ-128" value="🟡 CPC - Costo Por Clic" style="whiteSpace=wrap;strokeWidth=2;fillColor=#e3c800;fontColor=#000000;strokeColor=#B09500;" vertex="1" parent="1">
          <mxGeometry x="36" y="2502" width="227" height="54" as="geometry" />
        </mxCell>
        <mxCell id="mTm7E0tjke5o1m_IlCaZ-129" value="🟡 Ventana de Atribución" style="whiteSpace=wrap;strokeWidth=2;fillColor=#e3c800;fontColor=#000000;strokeColor=#B09500;" vertex="1" parent="1">
          <mxGeometry x="29" y="2606" width="243" height="54" as="geometry" />
        </mxCell>
        <mxCell id="mTm7E0tjke5o1m_IlCaZ-130" value="🟡 Evento de Conversión" style="whiteSpace=wrap;strokeWidth=2;fillColor=#e3c800;fontColor=#000000;strokeColor=#B09500;" vertex="1" parent="1">
          <mxGeometry x="31" y="2710" width="239" height="54" as="geometry" />
        </mxCell>
        <mxCell id="mTm7E0tjke5o1m_IlCaZ-131" value="" style="curved=1;startArrow=none;endArrow=block;exitX=0.6;exitY=0;entryX=0;entryY=0.38;rounded=0;strokeColor=light-dark(#000000,#000000);" edge="1" parent="1" source="mTm7E0tjke5o1m_IlCaZ-84" target="mTm7E0tjke5o1m_IlCaZ-93">
          <mxGeometry relative="1" as="geometry">
            <Array as="points">
              <mxPoint x="305" y="37" />
            </Array>
          </mxGeometry>
        </mxCell>
        <mxCell id="mTm7E0tjke5o1m_IlCaZ-132" value="" style="curved=1;startArrow=none;endArrow=block;exitX=1;exitY=0.5;entryX=0;entryY=0.5;rounded=0;strokeColor=light-dark(#000000,#000000);" edge="1" parent="1" source="mTm7E0tjke5o1m_IlCaZ-93" target="mTm7E0tjke5o1m_IlCaZ-104">
          <mxGeometry relative="1" as="geometry">
            <Array as="points" />
          </mxGeometry>
        </mxCell>
        <mxCell id="mTm7E0tjke5o1m_IlCaZ-133" value="" style="curved=1;startArrow=none;endArrow=block;exitX=1;exitY=0.65;entryX=0;entryY=0.38;rounded=0;strokeColor=light-dark(#000000,#000000);" edge="1" parent="1" source="mTm7E0tjke5o1m_IlCaZ-115" target="mTm7E0tjke5o1m_IlCaZ-94">
          <mxGeometry relative="1" as="geometry">
            <Array as="points">
              <mxPoint x="305" y="161" />
            </Array>
          </mxGeometry>
        </mxCell>
        <mxCell id="mTm7E0tjke5o1m_IlCaZ-134" value="" style="curved=1;startArrow=none;endArrow=block;exitX=0.95;exitY=0;entryX=0.08;entryY=1;rounded=0;strokeColor=light-dark(#000000,#000000);" edge="1" parent="1" source="mTm7E0tjke5o1m_IlCaZ-84" target="mTm7E0tjke5o1m_IlCaZ-94">
          <mxGeometry relative="1" as="geometry">
            <Array as="points">
              <mxPoint x="305" y="223" />
            </Array>
          </mxGeometry>
        </mxCell>
        <mxCell id="mTm7E0tjke5o1m_IlCaZ-135" value="" style="curved=1;startArrow=none;endArrow=block;exitX=1;exitY=0.5;entryX=0;entryY=0.5;rounded=0;strokeColor=light-dark(#000000,#000000);" edge="1" parent="1" source="mTm7E0tjke5o1m_IlCaZ-94" target="mTm7E0tjke5o1m_IlCaZ-105">
          <mxGeometry relative="1" as="geometry">
            <Array as="points" />
          </mxGeometry>
        </mxCell>
        <mxCell id="mTm7E0tjke5o1m_IlCaZ-136" value="" style="curved=1;startArrow=none;endArrow=block;exitX=1;exitY=0.5;entryX=0.27;entryY=0;rounded=0;strokeColor=light-dark(#000000,#000000);" edge="1" parent="1" source="mTm7E0tjke5o1m_IlCaZ-85" target="mTm7E0tjke5o1m_IlCaZ-95">
          <mxGeometry relative="1" as="geometry">
            <Array as="points">
              <mxPoint x="305" y="531" />
            </Array>
          </mxGeometry>
        </mxCell>
        <mxCell id="mTm7E0tjke5o1m_IlCaZ-137" value="" style="curved=1;startArrow=none;endArrow=block;exitX=1;exitY=0.5;entryX=0;entryY=0.67;rounded=0;strokeColor=light-dark(#000000,#000000);" edge="1" parent="1" source="mTm7E0tjke5o1m_IlCaZ-117" target="mTm7E0tjke5o1m_IlCaZ-95">
          <mxGeometry relative="1" as="geometry">
            <Array as="points">
              <mxPoint x="305" y="647" />
            </Array>
          </mxGeometry>
        </mxCell>
        <mxCell id="mTm7E0tjke5o1m_IlCaZ-138" value="" style="curved=1;startArrow=none;endArrow=block;exitX=1;exitY=0.5;entryX=0;entryY=0.5;rounded=0;strokeColor=light-dark(#000000,#000000);" edge="1" parent="1" source="mTm7E0tjke5o1m_IlCaZ-95" target="mTm7E0tjke5o1m_IlCaZ-106">
          <mxGeometry relative="1" as="geometry">
            <Array as="points" />
          </mxGeometry>
        </mxCell>
        <mxCell id="mTm7E0tjke5o1m_IlCaZ-139" value="" style="curved=1;startArrow=none;endArrow=block;exitX=1;exitY=0.61;entryX=0;entryY=0.5;rounded=0;strokeColor=light-dark(#000000,#000000);" edge="1" parent="1" source="mTm7E0tjke5o1m_IlCaZ-84" target="mTm7E0tjke5o1m_IlCaZ-96">
          <mxGeometry relative="1" as="geometry">
            <Array as="points">
              <mxPoint x="305" y="285" />
            </Array>
          </mxGeometry>
        </mxCell>
        <mxCell id="mTm7E0tjke5o1m_IlCaZ-140" value="" style="curved=1;startArrow=none;endArrow=block;exitX=1;exitY=0.5;entryX=0;entryY=0.5;rounded=0;strokeColor=light-dark(#000000,#000000);" edge="1" parent="1" source="mTm7E0tjke5o1m_IlCaZ-96" target="mTm7E0tjke5o1m_IlCaZ-107">
          <mxGeometry relative="1" as="geometry">
            <Array as="points" />
          </mxGeometry>
        </mxCell>
        <mxCell id="mTm7E0tjke5o1m_IlCaZ-141" value="" style="curved=1;startArrow=none;endArrow=block;exitX=1;exitY=0.5;entryX=0;entryY=0.5;rounded=0;strokeColor=light-dark(#000000,#000000);" edge="1" parent="1" source="mTm7E0tjke5o1m_IlCaZ-86" target="mTm7E0tjke5o1m_IlCaZ-97">
          <mxGeometry relative="1" as="geometry">
            <Array as="points" />
          </mxGeometry>
        </mxCell>
        <mxCell id="mTm7E0tjke5o1m_IlCaZ-142" value="" style="curved=1;startArrow=none;endArrow=block;exitX=1;exitY=0.5;entryX=0.31;entryY=0;rounded=0;strokeColor=light-dark(#000000,#000000);" edge="1" parent="1" source="mTm7E0tjke5o1m_IlCaZ-97" target="mTm7E0tjke5o1m_IlCaZ-108">
          <mxGeometry relative="1" as="geometry">
            <Array as="points">
              <mxPoint x="615" y="763" />
            </Array>
          </mxGeometry>
        </mxCell>
        <mxCell id="mTm7E0tjke5o1m_IlCaZ-143" value="" style="curved=1;startArrow=none;endArrow=block;exitX=1;exitY=0.35;entryX=0;entryY=0.5;rounded=0;strokeColor=light-dark(#000000,#000000);" edge="1" parent="1" source="mTm7E0tjke5o1m_IlCaZ-88" target="mTm7E0tjke5o1m_IlCaZ-98">
          <mxGeometry relative="1" as="geometry">
            <Array as="points">
              <mxPoint x="305" y="1471" />
            </Array>
          </mxGeometry>
        </mxCell>
        <mxCell id="mTm7E0tjke5o1m_IlCaZ-144" value="" style="curved=1;startArrow=none;endArrow=block;exitX=1;exitY=0.5;entryX=0;entryY=0.5;rounded=0;strokeColor=light-dark(#000000,#000000);" edge="1" parent="1" source="mTm7E0tjke5o1m_IlCaZ-98" target="mTm7E0tjke5o1m_IlCaZ-109">
          <mxGeometry relative="1" as="geometry">
            <Array as="points" />
          </mxGeometry>
        </mxCell>
        <mxCell id="mTm7E0tjke5o1m_IlCaZ-145" value="" style="curved=1;startArrow=none;endArrow=block;exitX=1;exitY=0.36;entryX=0;entryY=0.5;rounded=0;strokeColor=light-dark(#000000,#000000);" edge="1" parent="1" source="mTm7E0tjke5o1m_IlCaZ-87" target="mTm7E0tjke5o1m_IlCaZ-99">
          <mxGeometry relative="1" as="geometry">
            <Array as="points">
              <mxPoint x="305" y="995" />
            </Array>
          </mxGeometry>
        </mxCell>
        <mxCell id="mTm7E0tjke5o1m_IlCaZ-146" value="" style="curved=1;startArrow=none;endArrow=block;exitX=1;exitY=0.5;entryX=0;entryY=0.5;rounded=0;strokeColor=light-dark(#000000,#000000);" edge="1" parent="1" source="mTm7E0tjke5o1m_IlCaZ-99" target="mTm7E0tjke5o1m_IlCaZ-110">
          <mxGeometry relative="1" as="geometry">
            <Array as="points" />
          </mxGeometry>
        </mxCell>
        <mxCell id="mTm7E0tjke5o1m_IlCaZ-147" value="" style="curved=1;startArrow=none;endArrow=block;exitX=0.84;exitY=1;entryX=0.09;entryY=0;rounded=0;strokeColor=light-dark(#000000,#000000);" edge="1" parent="1" source="mTm7E0tjke5o1m_IlCaZ-87" target="mTm7E0tjke5o1m_IlCaZ-100">
          <mxGeometry relative="1" as="geometry">
            <Array as="points">
              <mxPoint x="305" y="1057" />
            </Array>
          </mxGeometry>
        </mxCell>
        <mxCell id="mTm7E0tjke5o1m_IlCaZ-148" value="" style="curved=1;startArrow=none;endArrow=block;exitX=1;exitY=0.35;entryX=0.23;entryY=1;rounded=0;strokeColor=light-dark(#000000,#000000);" edge="1" parent="1" source="mTm7E0tjke5o1m_IlCaZ-90" target="mTm7E0tjke5o1m_IlCaZ-100">
          <mxGeometry relative="1" as="geometry">
            <Array as="points">
              <mxPoint x="305" y="1163" />
            </Array>
          </mxGeometry>
        </mxCell>
        <mxCell id="mTm7E0tjke5o1m_IlCaZ-149" value="" style="curved=1;startArrow=none;endArrow=block;exitX=1;exitY=0.5;entryX=0.4;entryY=0;rounded=0;strokeColor=light-dark(#000000,#000000);" edge="1" parent="1" source="mTm7E0tjke5o1m_IlCaZ-100" target="mTm7E0tjke5o1m_IlCaZ-111">
          <mxGeometry relative="1" as="geometry">
            <Array as="points">
              <mxPoint x="615" y="1099" />
            </Array>
          </mxGeometry>
        </mxCell>
        <mxCell id="mTm7E0tjke5o1m_IlCaZ-150" value="" style="curved=1;startArrow=none;endArrow=block;exitX=1;exitY=0.5;entryX=0.4;entryY=0;rounded=0;strokeColor=light-dark(#000000,#000000);" edge="1" parent="1" source="mTm7E0tjke5o1m_IlCaZ-118" target="mTm7E0tjke5o1m_IlCaZ-101">
          <mxGeometry relative="1" as="geometry">
            <Array as="points">
              <mxPoint x="305" y="1949" />
            </Array>
          </mxGeometry>
        </mxCell>
        <mxCell id="mTm7E0tjke5o1m_IlCaZ-151" value="" style="curved=1;startArrow=none;endArrow=block;exitX=1;exitY=0.5;entryX=0.19;entryY=0;rounded=0;strokeColor=light-dark(#000000,#000000);" edge="1" parent="1" source="mTm7E0tjke5o1m_IlCaZ-119" target="mTm7E0tjke5o1m_IlCaZ-101">
          <mxGeometry relative="1" as="geometry">
            <Array as="points">
              <mxPoint x="305" y="2077" />
            </Array>
          </mxGeometry>
        </mxCell>
        <mxCell id="mTm7E0tjke5o1m_IlCaZ-152" value="" style="curved=1;startArrow=none;endArrow=block;exitX=1;exitY=0.5;entryX=0;entryY=0.5;rounded=0;strokeColor=light-dark(#000000,#000000);" edge="1" parent="1" source="mTm7E0tjke5o1m_IlCaZ-101" target="mTm7E0tjke5o1m_IlCaZ-112">
          <mxGeometry relative="1" as="geometry">
            <Array as="points" />
          </mxGeometry>
        </mxCell>
        <mxCell id="mTm7E0tjke5o1m_IlCaZ-153" value="" style="curved=1;startArrow=none;endArrow=block;exitX=0.93;exitY=1;entryX=0.39;entryY=0;rounded=0;strokeColor=light-dark(#000000,#000000);" edge="1" parent="1" source="mTm7E0tjke5o1m_IlCaZ-88" target="mTm7E0tjke5o1m_IlCaZ-102">
          <mxGeometry relative="1" as="geometry">
            <Array as="points">
              <mxPoint x="305" y="1539" />
            </Array>
          </mxGeometry>
        </mxCell>
        <mxCell id="mTm7E0tjke5o1m_IlCaZ-154" value="" style="curved=1;startArrow=none;endArrow=block;exitX=1;exitY=0.5;entryX=0.34;entryY=0;rounded=0;strokeColor=light-dark(#000000,#000000);" edge="1" parent="1" source="mTm7E0tjke5o1m_IlCaZ-120" target="mTm7E0tjke5o1m_IlCaZ-102">
          <mxGeometry relative="1" as="geometry">
            <Array as="points">
              <mxPoint x="305" y="1613" />
            </Array>
          </mxGeometry>
        </mxCell>
        <mxCell id="mTm7E0tjke5o1m_IlCaZ-155" value="" style="curved=1;startArrow=none;endArrow=block;exitX=1;exitY=0.5;entryX=0;entryY=0.5;rounded=0;strokeColor=light-dark(#000000,#000000);" edge="1" parent="1" source="mTm7E0tjke5o1m_IlCaZ-102" target="mTm7E0tjke5o1m_IlCaZ-113">
          <mxGeometry relative="1" as="geometry">
            <Array as="points" />
          </mxGeometry>
        </mxCell>
        <mxCell id="mTm7E0tjke5o1m_IlCaZ-156" value="" style="curved=1;startArrow=none;endArrow=block;exitX=0.83;exitY=1;entryX=0.19;entryY=0;rounded=0;strokeColor=light-dark(#000000,#000000);" edge="1" parent="1" source="mTm7E0tjke5o1m_IlCaZ-84" target="mTm7E0tjke5o1m_IlCaZ-103">
          <mxGeometry relative="1" as="geometry">
            <Array as="points">
              <mxPoint x="305" y="347" />
            </Array>
          </mxGeometry>
        </mxCell>
        <mxCell id="mTm7E0tjke5o1m_IlCaZ-157" value="" style="curved=1;startArrow=none;endArrow=block;exitX=1;exitY=0.5;entryX=0;entryY=0.64;rounded=0;strokeColor=light-dark(#000000,#000000);" edge="1" parent="1" source="mTm7E0tjke5o1m_IlCaZ-121" target="mTm7E0tjke5o1m_IlCaZ-103">
          <mxGeometry relative="1" as="geometry">
            <Array as="points">
              <mxPoint x="305" y="415" />
            </Array>
          </mxGeometry>
        </mxCell>
        <mxCell id="mTm7E0tjke5o1m_IlCaZ-158" value="" style="curved=1;startArrow=none;endArrow=block;exitX=1;exitY=0.5;entryX=0;entryY=0.5;rounded=0;strokeColor=light-dark(#000000,#000000);" edge="1" parent="1" source="mTm7E0tjke5o1m_IlCaZ-103" target="mTm7E0tjke5o1m_IlCaZ-114">
          <mxGeometry relative="1" as="geometry">
            <Array as="points" />
          </mxGeometry>
        </mxCell>
        <mxCell id="mTm7E0tjke5o1m_IlCaZ-159" value="" style="curved=1;dashed=1;dashPattern=2 3;startArrow=none;endArrow=block;exitX=1;exitY=0.5;entryX=0.19;entryY=1;rounded=0;strokeColor=light-dark(#000000,#000000);" edge="1" parent="1" source="mTm7E0tjke5o1m_IlCaZ-122" target="mTm7E0tjke5o1m_IlCaZ-101">
          <mxGeometry relative="1" as="geometry">
            <Array as="points">
              <mxPoint x="305" y="2205" />
            </Array>
          </mxGeometry>
        </mxCell>
        <mxCell id="mTm7E0tjke5o1m_IlCaZ-160" value="" style="curved=1;dashed=1;dashPattern=2 3;startArrow=none;endArrow=block;exitX=1;exitY=0.5;entryX=0.2;entryY=0;rounded=0;strokeColor=light-dark(#000000,#000000);" edge="1" parent="1" source="mTm7E0tjke5o1m_IlCaZ-123" target="mTm7E0tjke5o1m_IlCaZ-111">
          <mxGeometry relative="1" as="geometry">
            <Array as="points">
              <mxPoint x="615" y="1215" />
            </Array>
          </mxGeometry>
        </mxCell>
        <mxCell id="mTm7E0tjke5o1m_IlCaZ-161" value="" style="curved=1;dashed=1;dashPattern=2 3;startArrow=none;endArrow=block;exitX=1;exitY=0.5;entryX=0;entryY=0.26;rounded=0;strokeColor=light-dark(#000000,#000000);" edge="1" parent="1" source="mTm7E0tjke5o1m_IlCaZ-124" target="mTm7E0tjke5o1m_IlCaZ-102">
          <mxGeometry relative="1" as="geometry">
            <Array as="points">
              <mxPoint x="305" y="1729" />
            </Array>
          </mxGeometry>
        </mxCell>
        <mxCell id="mTm7E0tjke5o1m_IlCaZ-162" value="" style="curved=1;dashed=1;dashPattern=2 3;startArrow=none;endArrow=block;exitX=1;exitY=0.5;entryX=0;entryY=0.71;rounded=0;strokeColor=light-dark(#000000,#000000);" edge="1" parent="1" source="mTm7E0tjke5o1m_IlCaZ-125" target="mTm7E0tjke5o1m_IlCaZ-108">
          <mxGeometry relative="1" as="geometry">
            <Array as="points">
              <mxPoint x="615" y="879" />
            </Array>
          </mxGeometry>
        </mxCell>
        <mxCell id="mTm7E0tjke5o1m_IlCaZ-163" value="" style="curved=1;dashed=1;dashPattern=2 3;startArrow=none;endArrow=block;exitX=1;exitY=0.6;entryX=0;entryY=0.62;rounded=0;strokeColor=light-dark(#000000,#000000);" edge="1" parent="1" source="mTm7E0tjke5o1m_IlCaZ-89" target="mTm7E0tjke5o1m_IlCaZ-93">
          <mxGeometry relative="1" as="geometry">
            <Array as="points">
              <mxPoint x="305" y="57" />
            </Array>
          </mxGeometry>
        </mxCell>
        <mxCell id="mTm7E0tjke5o1m_IlCaZ-164" value="" style="curved=1;dashed=1;dashPattern=2 3;startArrow=none;endArrow=block;exitX=0.64;exitY=1;entryX=0.41;entryY=1;rounded=0;strokeColor=light-dark(#000000,#000000);" edge="1" parent="1" source="mTm7E0tjke5o1m_IlCaZ-90" target="mTm7E0tjke5o1m_IlCaZ-100">
          <mxGeometry relative="1" as="geometry">
            <Array as="points">
              <mxPoint x="305" y="1285" />
            </Array>
          </mxGeometry>
        </mxCell>
        <mxCell id="mTm7E0tjke5o1m_IlCaZ-165" value="" style="curved=1;dashed=1;dashPattern=2 3;startArrow=none;endArrow=block;exitX=1;exitY=0.5;entryX=0.22;entryY=1;rounded=0;strokeColor=light-dark(#000000,#000000);" edge="1" parent="1" source="mTm7E0tjke5o1m_IlCaZ-91" target="mTm7E0tjke5o1m_IlCaZ-102">
          <mxGeometry relative="1" as="geometry">
            <Array as="points">
              <mxPoint x="305" y="1833" />
            </Array>
          </mxGeometry>
        </mxCell>
        <mxCell id="mTm7E0tjke5o1m_IlCaZ-166" value="" style="curved=1;dashed=1;dashPattern=2 3;startArrow=none;endArrow=block;exitX=1;exitY=0.5;entryX=0.25;entryY=1;rounded=0;strokeColor=light-dark(#000000,#000000);" edge="1" parent="1" source="mTm7E0tjke5o1m_IlCaZ-92" target="mTm7E0tjke5o1m_IlCaZ-111">
          <mxGeometry relative="1" as="geometry">
            <Array as="points">
              <mxPoint x="615" y="1343" />
            </Array>
          </mxGeometry>
        </mxCell>
        <mxCell id="mTm7E0tjke5o1m_IlCaZ-167" value="" style="rounded=1;whiteSpace=wrap;html=1;" vertex="1" parent="1">
          <mxGeometry x="-400" y="20" width="280" height="560" as="geometry" />
        </mxCell>
        <mxCell id="mTm7E0tjke5o1m_IlCaZ-168" value="Convención" style="text;html=1;align=center;verticalAlign=middle;whiteSpace=wrap;rounded=0;" vertex="1" parent="1">
          <mxGeometry x="-380" y="32" width="60" height="30" as="geometry" />
        </mxCell>
        <mxCell id="mTm7E0tjke5o1m_IlCaZ-169" value="🟠 Eventos de dominio" style="whiteSpace=wrap;strokeWidth=2;fillColor=#a0522d;fontColor=#ffffff;strokeColor=#6D1F00;" vertex="1" parent="1">
          <mxGeometry x="-380" y="62" width="200" height="54" as="geometry" />
        </mxCell>
        <mxCell id="mTm7E0tjke5o1m_IlCaZ-170" value="🔵 Comandos" style="whiteSpace=wrap;strokeWidth=2;fillColor=#1ba1e2;fontColor=#ffffff;strokeColor=#006EAF;" vertex="1" parent="1">
          <mxGeometry x="-380" y="130" width="200" height="54" as="geometry" />
        </mxCell>
        <mxCell id="mTm7E0tjke5o1m_IlCaZ-171" value="🟢 Modelos de lectura" style="whiteSpace=wrap;strokeWidth=2;fillColor=#6d8764;fontColor=#ffffff;strokeColor=#3A5431;" vertex="1" parent="1">
          <mxGeometry x="-380" y="198" width="200" height="54" as="geometry" />
        </mxCell>
        <mxCell id="mTm7E0tjke5o1m_IlCaZ-172" value="🟣 Políticas" style="whiteSpace=wrap;strokeWidth=2;fillColor=#76608a;fontColor=#ffffff;strokeColor=#432D57;" vertex="1" parent="1">
          <mxGeometry x="-380" y="270" width="200" height="50" as="geometry" />
        </mxCell>
        <mxCell id="mTm7E0tjke5o1m_IlCaZ-173" value="👤 Actores" style="whiteSpace=wrap;strokeWidth=2;fillColor=light-dark(#F0A30A,#FFFF66);fontColor=light-dark(#000000,#000000);strokeColor=#BD7000;" vertex="1" parent="1">
          <mxGeometry x="-380" y="340" width="200" height="54" as="geometry" />
        </mxCell>
        <mxCell id="mTm7E0tjke5o1m_IlCaZ-174" value="📱 Sistemas Externos" style="whiteSpace=wrap;strokeWidth=2;fillColor=#d80073;fontColor=#ffffff;strokeColor=#A50040;" vertex="1" parent="1">
          <mxGeometry x="-380" y="410" width="200" height="54" as="geometry" />
        </mxCell>
        <mxCell id="mTm7E0tjke5o1m_IlCaZ-176" value="🟡 Definición" style="whiteSpace=wrap;strokeWidth=2;fillColor=#e3c800;fontColor=#000000;strokeColor=#B09500;" vertex="1" parent="1">
          <mxGeometry x="-380" y="480" width="200" height="54" as="geometry" />
        </mxCell>
      </root>
    </mxGraphModel>
  </diagram>
</mxfile>
